<mxfile host="app.diagrams.net" modified="2021-09-30T03:49:51.954Z" agent="5.0 (X11; Linux x86_64) AppleWebKit/537.36 (KHTML, like Gecko) Chrome/94.0.4606.61 Safari/537.36" etag="TJ3anRm8op4ooXN_qWTW" version="15.3.8" type="github">
  <diagram id="c3yGqSvmC09RxE3_YEL_" name="Page-1">
    <mxGraphModel dx="1422" dy="761" grid="1" gridSize="10" guides="1" tooltips="1" connect="1" arrows="1" fold="1" page="1" pageScale="1" pageWidth="1920" pageHeight="1200" math="0" shadow="0">
      <root>
        <mxCell id="0" />
        <mxCell id="1" parent="0" />
        <mxCell id="URq_QIz9m_Kx9VvWG_id-1" value="" style="edgeStyle=orthogonalEdgeStyle;rounded=0;orthogonalLoop=1;jettySize=auto;html=1;entryX=0;entryY=0.5;entryDx=0;entryDy=0;exitX=1;exitY=0.5;exitDx=0;exitDy=0;" edge="1" parent="1" source="URq_QIz9m_Kx9VvWG_id-4" target="URq_QIz9m_Kx9VvWG_id-6">
          <mxGeometry relative="1" as="geometry">
            <Array as="points">
              <mxPoint x="300" y="380" />
              <mxPoint x="300" y="120" />
            </Array>
          </mxGeometry>
        </mxCell>
        <mxCell id="URq_QIz9m_Kx9VvWG_id-2" value="" style="edgeStyle=orthogonalEdgeStyle;rounded=0;orthogonalLoop=1;jettySize=auto;html=1;entryX=0;entryY=0.5;entryDx=0;entryDy=0;" edge="1" parent="1" source="URq_QIz9m_Kx9VvWG_id-4" target="URq_QIz9m_Kx9VvWG_id-8">
          <mxGeometry relative="1" as="geometry">
            <Array as="points">
              <mxPoint x="300" y="380" />
              <mxPoint x="300" y="250" />
            </Array>
          </mxGeometry>
        </mxCell>
        <mxCell id="URq_QIz9m_Kx9VvWG_id-3" value="" style="edgeStyle=orthogonalEdgeStyle;rounded=0;orthogonalLoop=1;jettySize=auto;html=1;entryX=0;entryY=0.5;entryDx=0;entryDy=0;exitX=1;exitY=0.5;exitDx=0;exitDy=0;" edge="1" parent="1" source="URq_QIz9m_Kx9VvWG_id-4" target="URq_QIz9m_Kx9VvWG_id-10">
          <mxGeometry relative="1" as="geometry">
            <Array as="points">
              <mxPoint x="280" y="380" />
              <mxPoint x="280" y="380" />
            </Array>
          </mxGeometry>
        </mxCell>
        <mxCell id="URq_QIz9m_Kx9VvWG_id-4" value="内容" style="ellipse;whiteSpace=wrap;html=1;" vertex="1" parent="1">
          <mxGeometry x="120" y="340" width="120" height="80" as="geometry" />
        </mxCell>
        <mxCell id="URq_QIz9m_Kx9VvWG_id-5" value="" style="edgeStyle=orthogonalEdgeStyle;rounded=0;orthogonalLoop=1;jettySize=auto;html=1;" edge="1" parent="1" source="URq_QIz9m_Kx9VvWG_id-6" target="URq_QIz9m_Kx9VvWG_id-7">
          <mxGeometry relative="1" as="geometry" />
        </mxCell>
        <mxCell id="URq_QIz9m_Kx9VvWG_id-6" value="内容模板" style="ellipse;whiteSpace=wrap;html=1;" vertex="1" parent="1">
          <mxGeometry x="350" y="80" width="120" height="80" as="geometry" />
        </mxCell>
        <mxCell id="URq_QIz9m_Kx9VvWG_id-7" value="内容模板样式" style="ellipse;whiteSpace=wrap;html=1;" vertex="1" parent="1">
          <mxGeometry x="560" y="80" width="120" height="80" as="geometry" />
        </mxCell>
        <mxCell id="URq_QIz9m_Kx9VvWG_id-8" value="内容分类" style="ellipse;whiteSpace=wrap;html=1;" vertex="1" parent="1">
          <mxGeometry x="350" y="210" width="120" height="80" as="geometry" />
        </mxCell>
        <mxCell id="URq_QIz9m_Kx9VvWG_id-9" value="" style="edgeStyle=orthogonalEdgeStyle;rounded=0;orthogonalLoop=1;jettySize=auto;html=1;" edge="1" parent="1" source="URq_QIz9m_Kx9VvWG_id-10" target="URq_QIz9m_Kx9VvWG_id-18">
          <mxGeometry relative="1" as="geometry" />
        </mxCell>
        <mxCell id="URq_QIz9m_Kx9VvWG_id-10" value="内容标签" style="ellipse;whiteSpace=wrap;html=1;" vertex="1" parent="1">
          <mxGeometry x="350" y="340" width="120" height="80" as="geometry" />
        </mxCell>
        <mxCell id="URq_QIz9m_Kx9VvWG_id-11" value="" style="edgeStyle=orthogonalEdgeStyle;rounded=0;orthogonalLoop=1;jettySize=auto;html=1;exitX=1;exitY=0.5;exitDx=0;exitDy=0;" edge="1" parent="1" source="URq_QIz9m_Kx9VvWG_id-4" target="URq_QIz9m_Kx9VvWG_id-15">
          <mxGeometry relative="1" as="geometry">
            <Array as="points">
              <mxPoint x="300" y="380" />
              <mxPoint x="300" y="640" />
            </Array>
          </mxGeometry>
        </mxCell>
        <mxCell id="URq_QIz9m_Kx9VvWG_id-12" value="" style="edgeStyle=orthogonalEdgeStyle;rounded=0;orthogonalLoop=1;jettySize=auto;html=1;entryX=0;entryY=0.5;entryDx=0;entryDy=0;exitX=1;exitY=0.5;exitDx=0;exitDy=0;" edge="1" parent="1" source="URq_QIz9m_Kx9VvWG_id-4" target="URq_QIz9m_Kx9VvWG_id-13">
          <mxGeometry relative="1" as="geometry">
            <Array as="points">
              <mxPoint x="300" y="380" />
              <mxPoint x="300" y="510" />
            </Array>
          </mxGeometry>
        </mxCell>
        <mxCell id="URq_QIz9m_Kx9VvWG_id-13" value="分词&amp;amp;索引" style="ellipse;whiteSpace=wrap;html=1;" vertex="1" parent="1">
          <mxGeometry x="350" y="470" width="120" height="80" as="geometry" />
        </mxCell>
        <mxCell id="URq_QIz9m_Kx9VvWG_id-14" value="" style="edgeStyle=orthogonalEdgeStyle;rounded=0;orthogonalLoop=1;jettySize=auto;html=1;" edge="1" parent="1" source="URq_QIz9m_Kx9VvWG_id-15" target="URq_QIz9m_Kx9VvWG_id-17">
          <mxGeometry relative="1" as="geometry" />
        </mxCell>
        <mxCell id="URq_QIz9m_Kx9VvWG_id-15" value="发布" style="ellipse;whiteSpace=wrap;html=1;" vertex="1" parent="1">
          <mxGeometry x="350" y="600" width="120" height="80" as="geometry" />
        </mxCell>
        <mxCell id="URq_QIz9m_Kx9VvWG_id-16" value="" style="edgeStyle=orthogonalEdgeStyle;rounded=0;orthogonalLoop=1;jettySize=auto;html=1;" edge="1" parent="1" source="URq_QIz9m_Kx9VvWG_id-17" target="URq_QIz9m_Kx9VvWG_id-19">
          <mxGeometry relative="1" as="geometry" />
        </mxCell>
        <mxCell id="URq_QIz9m_Kx9VvWG_id-17" value="静态化" style="ellipse;whiteSpace=wrap;html=1;" vertex="1" parent="1">
          <mxGeometry x="550" y="600" width="120" height="80" as="geometry" />
        </mxCell>
        <mxCell id="URq_QIz9m_Kx9VvWG_id-18" value="近似度分析" style="ellipse;whiteSpace=wrap;html=1;" vertex="1" parent="1">
          <mxGeometry x="560" y="340" width="120" height="80" as="geometry" />
        </mxCell>
        <mxCell id="URq_QIz9m_Kx9VvWG_id-19" value="模板引擎" style="ellipse;whiteSpace=wrap;html=1;" vertex="1" parent="1">
          <mxGeometry x="550" y="720" width="120" height="80" as="geometry" />
        </mxCell>
      </root>
    </mxGraphModel>
  </diagram>
</mxfile>
